<?xml version="1.0" encoding="utf-8"?>
<!-- Generator: Adobe Illustrator 25.0.0, SVG Export Plug-In . SVG Version: 6.00 Build 0)  -->
<svg version="1.1" id="Layer_1" xmlns="http://www.w3.org/2000/svg" xmlns:xlink="http://www.w3.org/1999/xlink" x="0px" y="0px"
	 viewBox="0 0 500 500" style="enable-background:new 0 0 500 500;" xml:space="preserve">
<style type="text/css">
	.st0{fill:#F3BA2F;}
	.st1{fill:#FFFFFF;}
</style>
<g>
	<circle class="st0" cx="250" cy="250" r="250"/>
	<g>
		
			<rect x="43.7" y="214.8" transform="matrix(0.7071 -0.7071 0.7071 0.7071 -153.6488 129.1616)" class="st1" width="70.7" height="70.6"/>
		<polygon class="st1" points="164.6,214.6 250.1,129 335.6,214.5 385.6,164.5 250.2,29.1 200.2,79.1 200.2,79.1 114.7,164.6 		"/>
		
			<rect x="214.8" y="214.8" transform="matrix(0.7071 -0.7071 0.7071 0.7071 -103.5479 250.1139)" class="st1" width="70.7" height="70.6"/>
		
			<rect x="385.7" y="214.6" transform="matrix(0.7071 -0.7071 0.7071 0.7071 -53.4299 370.9079)" class="st1" width="70.7" height="70.6"/>
		<polygon class="st1" points="335.5,285.4 250,370.9 164.7,285.6 114.7,335.6 250,470.9 300,420.9 299.9,420.9 385.4,335.3 		"/>
	</g>
</g>
</svg>
