<svg width="32" height="32" viewBox="0 0 32 32" fill="none" xmlns="http://www.w3.org/2000/svg">
<rect width="32" height="32" rx="9" fill="white"/>
<path d="M23.4211 9.35132C25.8304 12.8381 27.0203 16.7712 26.5755 21.299C26.5736 21.3182 26.5635 21.3358 26.5475 21.3473C24.7229 22.666 22.9552 23.4663 21.2123 23.9971C21.1987 24.0011 21.1842 24.0009 21.1707 23.9964C21.1573 23.992 21.1456 23.9835 21.1373 23.9721C20.7347 23.4207 20.3688 22.8393 20.0483 22.2287C20.0299 22.1928 20.0467 22.1495 20.0845 22.1353C20.6656 21.9198 21.2181 21.6615 21.7496 21.3557C21.7915 21.3316 21.7941 21.2725 21.7555 21.2442C21.6427 21.1617 21.5309 21.0751 21.424 20.9885C21.404 20.9725 21.3771 20.9693 21.3544 20.9801C17.904 22.5484 14.1243 22.5484 10.6331 20.9801C10.6104 20.9701 10.5835 20.9735 10.564 20.9893C10.4574 21.0759 10.3454 21.1617 10.2336 21.2442C10.195 21.2725 10.1982 21.3316 10.2403 21.3557C10.7718 21.6557 11.3243 21.9198 11.9046 22.1363C11.9422 22.1505 11.96 22.1928 11.9414 22.2287C11.6278 22.8401 11.2619 23.4215 10.8518 23.9729C10.8339 23.9952 10.8046 24.0055 10.7768 23.9971C9.04217 23.4663 7.27444 22.666 5.4499 21.3473C5.4347 21.3358 5.42377 21.3174 5.42217 21.2982C5.05044 17.3817 5.80804 13.4161 8.57363 9.35053C8.5803 9.33977 8.59043 9.33137 8.60217 9.32638C9.96296 8.71165 11.4208 8.25939 12.9446 8.00111C12.9723 7.99691 13 8.00951 13.0144 8.03365C13.2027 8.36176 13.4179 8.78252 13.5635 9.12637C15.1696 8.88489 16.8008 8.88489 18.4406 9.12637C18.5862 8.78987 18.7939 8.36176 18.9814 8.03365C18.988 8.02167 18.9984 8.01208 19.0109 8.00623C19.0235 8.00039 19.0376 7.99859 19.0512 8.00111C20.5757 8.26018 22.0336 8.71244 23.3933 9.32638C23.4053 9.33137 23.4152 9.33977 23.4211 9.35132ZM14.38 16.798C14.3968 15.6401 13.5392 14.6821 12.4627 14.6821C11.395 14.6821 10.5456 15.6317 10.5456 16.798C10.5456 17.9639 11.4118 18.9136 12.4627 18.9136C13.5307 18.9136 14.38 17.9639 14.38 16.798ZM21.4685 16.798C21.4853 15.6401 20.6277 14.6821 19.5515 14.6821C18.4835 14.6821 17.6342 15.6317 17.6342 16.798C17.6342 17.9639 18.5003 18.9136 19.5515 18.9136C20.6277 18.9136 21.4685 17.9639 21.4685 16.798Z" fill="#B1D287"/>
</svg>
