<svg width="516" height="155" viewBox="0 0 516 155" fill="none" xmlns="http://www.w3.org/2000/svg">
<path d="M2.27273 20.5682V12.4545H40.5V20.5682H26.25V59H16.5227V20.5682H2.27273ZM56.2955 38.8182V59H46.6136V12.4545H56.0227V30.25H56.4318C57.2197 28.1894 58.4924 26.5758 60.25 25.4091C62.0076 24.2273 64.2121 23.6364 66.8636 23.6364C69.2879 23.6364 71.4015 24.1667 73.2045 25.2273C75.0227 26.2727 76.4318 27.7803 77.4318 29.75C78.447 31.7045 78.947 34.0455 78.9318 36.7727V59H69.25V38.5C69.2652 36.3485 68.7197 34.6742 67.6136 33.4773C66.5227 32.2803 64.9924 31.6818 63.0227 31.6818C61.7045 31.6818 60.5379 31.9621 59.5227 32.5227C58.5227 33.0833 57.7348 33.9015 57.1591 34.9773C56.5985 36.0379 56.3106 37.3182 56.2955 38.8182ZM102.46 59.6818C98.8693 59.6818 95.7784 58.9545 93.1875 57.5C90.6117 56.0303 88.6269 53.9545 87.233 51.2727C85.839 48.5758 85.142 45.3864 85.142 41.7045C85.142 38.1136 85.839 34.9621 87.233 32.25C88.6269 29.5379 90.589 27.4242 93.1193 25.9091C95.6648 24.3939 98.6496 23.6364 102.074 23.6364C104.377 23.6364 106.521 24.0076 108.506 24.75C110.506 25.4773 112.248 26.5758 113.733 28.0455C115.233 29.5152 116.4 31.3636 117.233 33.5909C118.066 35.803 118.483 38.3939 118.483 41.3636V44.0227H89.0057V38.0227H109.369C109.369 36.6288 109.066 35.3939 108.46 34.3182C107.854 33.2424 107.013 32.4015 105.938 31.7955C104.877 31.1742 103.642 30.8636 102.233 30.8636C100.763 30.8636 99.4602 31.2045 98.3239 31.8864C97.2027 32.553 96.3239 33.4545 95.6875 34.5909C95.0511 35.7121 94.7254 36.9621 94.7102 38.3409V44.0455C94.7102 45.7727 95.0284 47.2652 95.6648 48.5227C96.3163 49.7803 97.233 50.75 98.4148 51.4318C99.5966 52.1136 100.998 52.4545 102.619 52.4545C103.695 52.4545 104.68 52.303 105.574 52C106.468 51.697 107.233 51.2424 107.869 50.6364C108.506 50.0303 108.991 49.2879 109.324 48.4091L118.278 49C117.824 51.1515 116.892 53.0303 115.483 54.6364C114.089 56.2273 112.286 57.4697 110.074 58.3636C107.877 59.2424 105.339 59.6818 102.46 59.6818ZM148.205 12.4545L159.455 47.8182H159.886L171.159 12.4545H182.068L166.023 59H153.341L137.273 12.4545H148.205ZM199.46 59.6818C195.869 59.6818 192.778 58.9545 190.188 57.5C187.612 56.0303 185.627 53.9545 184.233 51.2727C182.839 48.5758 182.142 45.3864 182.142 41.7045C182.142 38.1136 182.839 34.9621 184.233 32.25C185.627 29.5379 187.589 27.4242 190.119 25.9091C192.665 24.3939 195.65 23.6364 199.074 23.6364C201.377 23.6364 203.521 24.0076 205.506 24.75C207.506 25.4773 209.248 26.5758 210.733 28.0455C212.233 29.5152 213.4 31.3636 214.233 33.5909C215.066 35.803 215.483 38.3939 215.483 41.3636V44.0227H186.006V38.0227H206.369C206.369 36.6288 206.066 35.3939 205.46 34.3182C204.854 33.2424 204.013 32.4015 202.938 31.7955C201.877 31.1742 200.642 30.8636 199.233 30.8636C197.763 30.8636 196.46 31.2045 195.324 31.8864C194.203 32.553 193.324 33.4545 192.688 34.5909C192.051 35.7121 191.725 36.9621 191.71 38.3409V44.0455C191.71 45.7727 192.028 47.2652 192.665 48.5227C193.316 49.7803 194.233 50.75 195.415 51.4318C196.597 52.1136 197.998 52.4545 199.619 52.4545C200.695 52.4545 201.68 52.303 202.574 52C203.468 51.697 204.233 51.2424 204.869 50.6364C205.506 50.0303 205.991 49.2879 206.324 48.4091L215.278 49C214.824 51.1515 213.892 53.0303 212.483 54.6364C211.089 56.2273 209.286 57.4697 207.074 58.3636C204.877 59.2424 202.339 59.6818 199.46 59.6818ZM221.801 59V24.0909H231.188V30.1818H231.551C232.188 28.0152 233.256 26.3788 234.756 25.2727C236.256 24.1515 237.983 23.5909 239.938 23.5909C240.422 23.5909 240.945 23.6212 241.506 23.6818C242.066 23.7424 242.559 23.8258 242.983 23.9318V32.5227C242.528 32.3864 241.9 32.2652 241.097 32.1591C240.294 32.053 239.559 32 238.892 32C237.468 32 236.195 32.3106 235.074 32.9318C233.968 33.5379 233.089 34.3864 232.438 35.4773C231.801 36.5682 231.483 37.8258 231.483 39.25V59H221.801ZM256.943 59.6591C254.716 59.6591 252.731 59.2727 250.989 58.5C249.246 57.7121 247.867 56.553 246.852 55.0227C245.852 53.4773 245.352 51.553 245.352 49.25C245.352 47.3106 245.708 45.6818 246.42 44.3636C247.133 43.0455 248.102 41.9848 249.33 41.1818C250.557 40.3788 251.951 39.7727 253.511 39.3636C255.087 38.9545 256.739 38.6667 258.466 38.5C260.496 38.2879 262.133 38.0909 263.375 37.9091C264.617 37.7121 265.519 37.4242 266.08 37.0455C266.64 36.6667 266.92 36.1061 266.92 35.3636V35.2273C266.92 33.7879 266.466 32.6742 265.557 31.8864C264.663 31.0985 263.39 30.7045 261.739 30.7045C259.996 30.7045 258.61 31.0909 257.58 31.8636C256.549 32.6212 255.867 33.5758 255.534 34.7273L246.58 34C247.034 31.8788 247.928 30.0455 249.261 28.5C250.595 26.9394 252.314 25.7424 254.42 24.9091C256.542 24.0606 258.996 23.6364 261.784 23.6364C263.723 23.6364 265.58 23.8636 267.352 24.3182C269.14 24.7727 270.723 25.4773 272.102 26.4318C273.496 27.3864 274.595 28.6136 275.398 30.1136C276.201 31.5985 276.602 33.3788 276.602 35.4545V59H267.42V54.1591H267.148C266.587 55.25 265.837 56.2121 264.898 57.0455C263.958 57.8636 262.83 58.5076 261.511 58.9773C260.193 59.4318 258.67 59.6591 256.943 59.6591ZM259.716 52.9773C261.14 52.9773 262.398 52.697 263.489 52.1364C264.58 51.5606 265.436 50.7879 266.057 49.8182C266.678 48.8485 266.989 47.75 266.989 46.5227V42.8182C266.686 43.0152 266.269 43.197 265.739 43.3636C265.223 43.5152 264.64 43.6591 263.989 43.7955C263.337 43.9167 262.686 44.0303 262.034 44.1364C261.383 44.2273 260.792 44.3106 260.261 44.3864C259.125 44.553 258.133 44.8182 257.284 45.1818C256.436 45.5455 255.777 46.0379 255.307 46.6591C254.837 47.2652 254.602 48.0227 254.602 48.9318C254.602 50.25 255.08 51.2576 256.034 51.9545C257.004 52.6364 258.231 52.9773 259.716 52.9773Z" fill="white"/>
<path d="M32.9574 102.696C32.7528 100.634 31.875 99.0312 30.3239 97.8892C28.7727 96.7472 26.6676 96.1761 24.0085 96.1761C22.2017 96.1761 20.6761 96.4318 19.4318 96.9432C18.1875 97.4375 17.233 98.1278 16.5682 99.0142C15.9205 99.9006 15.5966 100.906 15.5966 102.031C15.5625 102.969 15.7585 103.787 16.1847 104.486C16.6278 105.185 17.233 105.79 18 106.301C18.767 106.795 19.6534 107.23 20.6591 107.605C21.6648 107.963 22.7386 108.27 23.8807 108.526L28.5852 109.651C30.8693 110.162 32.9659 110.844 34.875 111.696C36.7841 112.548 38.4375 113.597 39.8352 114.841C41.233 116.085 42.3153 117.551 43.0824 119.239C43.8665 120.926 44.267 122.861 44.2841 125.043C44.267 128.247 43.4489 131.026 41.8295 133.378C40.2273 135.713 37.9091 137.528 34.875 138.824C31.858 140.102 28.2188 140.741 23.9574 140.741C19.7301 140.741 16.0483 140.094 12.9119 138.798C9.79261 137.503 7.35511 135.585 5.59943 133.045C3.8608 130.489 2.94886 127.327 2.86364 123.56H13.5767C13.696 125.315 14.1989 126.781 15.0852 127.957C15.9886 129.116 17.1903 129.994 18.6903 130.591C20.2074 131.17 21.9205 131.46 23.8295 131.46C25.7045 131.46 27.3324 131.187 28.7131 130.642C30.1108 130.097 31.1932 129.338 31.9602 128.366C32.7273 127.395 33.1108 126.278 33.1108 125.017C33.1108 123.841 32.7614 122.852 32.0625 122.051C31.3807 121.25 30.375 120.568 29.0455 120.006C27.733 119.443 26.1222 118.932 24.2131 118.472L18.5114 117.04C14.0966 115.966 10.6108 114.287 8.05398 112.003C5.49716 109.719 4.22727 106.642 4.24432 102.773C4.22727 99.6023 5.07102 96.8324 6.77557 94.4631C8.49716 92.0938 10.858 90.2443 13.858 88.9148C16.858 87.5852 20.267 86.9205 24.0852 86.9205C27.9716 86.9205 31.3636 87.5852 34.2614 88.9148C37.1761 90.2443 39.4432 92.0938 41.0625 94.4631C42.6818 96.8324 43.517 99.5767 43.5682 102.696H32.9574ZM59.2734 140L48.5859 100.727H59.6058L65.6911 127.114H66.049L72.3899 100.727H83.2053L89.6484 126.96H89.9808L95.9638 100.727H106.958L96.2962 140H84.7649L78.0149 115.301H77.5291L70.7791 140H59.2734ZM123.967 140.741C121.462 140.741 119.229 140.307 117.268 139.438C115.308 138.551 113.757 137.247 112.615 135.526C111.49 133.787 110.928 131.622 110.928 129.031C110.928 126.849 111.328 125.017 112.129 123.534C112.93 122.051 114.021 120.858 115.402 119.955C116.783 119.051 118.351 118.369 120.107 117.909C121.879 117.449 123.737 117.125 125.68 116.938C127.964 116.699 129.805 116.477 131.203 116.273C132.601 116.051 133.615 115.727 134.246 115.301C134.876 114.875 135.192 114.244 135.192 113.409V113.256C135.192 111.636 134.68 110.384 133.658 109.497C132.652 108.611 131.22 108.168 129.362 108.168C127.402 108.168 125.842 108.602 124.683 109.472C123.524 110.324 122.757 111.398 122.382 112.693L112.308 111.875C112.82 109.489 113.825 107.426 115.325 105.688C116.825 103.932 118.76 102.585 121.129 101.648C123.516 100.693 126.277 100.216 129.413 100.216C131.595 100.216 133.683 100.472 135.678 100.983C137.689 101.494 139.47 102.287 141.021 103.361C142.589 104.435 143.825 105.815 144.729 107.503C145.632 109.173 146.084 111.176 146.084 113.511V140H135.754V134.554H135.447C134.817 135.781 133.973 136.864 132.916 137.801C131.859 138.722 130.589 139.446 129.107 139.974C127.624 140.486 125.911 140.741 123.967 140.741ZM127.087 133.224C128.689 133.224 130.104 132.909 131.331 132.278C132.558 131.631 133.521 130.761 134.22 129.67C134.919 128.58 135.268 127.344 135.268 125.963V121.795C134.928 122.017 134.459 122.222 133.862 122.409C133.283 122.58 132.626 122.741 131.893 122.895C131.161 123.031 130.428 123.159 129.695 123.278C128.962 123.381 128.297 123.474 127.7 123.56C126.422 123.747 125.305 124.045 124.351 124.455C123.396 124.864 122.655 125.418 122.126 126.116C121.598 126.798 121.334 127.651 121.334 128.673C121.334 130.156 121.871 131.29 122.945 132.074C124.036 132.841 125.416 133.224 127.087 133.224ZM154.534 154.727V100.727H165.273V107.324H165.759C166.236 106.267 166.926 105.193 167.83 104.102C168.75 102.994 169.943 102.074 171.409 101.341C172.892 100.591 174.733 100.216 176.932 100.216C179.795 100.216 182.438 100.966 184.858 102.466C187.278 103.949 189.213 106.19 190.662 109.19C192.111 112.173 192.835 115.915 192.835 120.415C192.835 124.795 192.128 128.494 190.713 131.511C189.315 134.511 187.406 136.787 184.986 138.338C182.582 139.872 179.889 140.639 176.906 140.639C174.793 140.639 172.994 140.29 171.511 139.591C170.045 138.892 168.844 138.014 167.906 136.957C166.969 135.884 166.253 134.801 165.759 133.71H165.426V154.727H154.534ZM165.196 120.364C165.196 122.699 165.52 124.736 166.168 126.474C166.815 128.213 167.753 129.568 168.98 130.54C170.207 131.494 171.699 131.972 173.455 131.972C175.227 131.972 176.727 131.486 177.955 130.514C179.182 129.526 180.111 128.162 180.741 126.423C181.389 124.668 181.713 122.648 181.713 120.364C181.713 118.097 181.398 116.102 180.767 114.381C180.136 112.659 179.207 111.312 177.98 110.341C176.753 109.369 175.244 108.884 173.455 108.884C171.682 108.884 170.182 109.352 168.955 110.29C167.744 111.227 166.815 112.557 166.168 114.278C165.52 116 165.196 118.028 165.196 120.364ZM227.96 140.741C225.454 140.741 223.221 140.307 221.261 139.438C219.3 138.551 217.749 137.247 216.607 135.526C215.482 133.787 214.92 131.622 214.92 129.031C214.92 126.849 215.32 125.017 216.121 123.534C216.923 122.051 218.013 120.858 219.394 119.955C220.775 119.051 222.343 118.369 224.099 117.909C225.871 117.449 227.729 117.125 229.673 116.938C231.957 116.699 233.798 116.477 235.195 116.273C236.593 116.051 237.607 115.727 238.238 115.301C238.869 114.875 239.184 114.244 239.184 113.409V113.256C239.184 111.636 238.673 110.384 237.65 109.497C236.644 108.611 235.212 108.168 233.354 108.168C231.394 108.168 229.835 108.602 228.675 109.472C227.516 110.324 226.749 111.398 226.374 112.693L216.3 111.875C216.812 109.489 217.817 107.426 219.317 105.688C220.817 103.932 222.752 102.585 225.121 101.648C227.508 100.693 230.269 100.216 233.406 100.216C235.587 100.216 237.675 100.472 239.67 100.983C241.681 101.494 243.462 102.287 245.013 103.361C246.582 104.435 247.817 105.815 248.721 107.503C249.624 109.173 250.076 111.176 250.076 113.511V140H239.746V134.554H239.44C238.809 135.781 237.965 136.864 236.908 137.801C235.852 138.722 234.582 139.446 233.099 139.974C231.616 140.486 229.903 140.741 227.96 140.741ZM231.079 133.224C232.681 133.224 234.096 132.909 235.323 132.278C236.55 131.631 237.513 130.761 238.212 129.67C238.911 128.58 239.261 127.344 239.261 125.963V121.795C238.92 122.017 238.451 122.222 237.854 122.409C237.275 122.58 236.619 122.741 235.886 122.895C235.153 123.031 234.42 123.159 233.687 123.278C232.954 123.381 232.289 123.474 231.692 123.56C230.414 123.747 229.298 124.045 228.343 124.455C227.388 124.864 226.647 125.418 226.119 126.116C225.59 126.798 225.326 127.651 225.326 128.673C225.326 130.156 225.863 131.29 226.937 132.074C228.028 132.841 229.408 133.224 231.079 133.224ZM269.418 117.295V140H258.526V100.727H268.907V107.656H269.367C270.237 105.372 271.694 103.565 273.739 102.236C275.785 100.889 278.265 100.216 281.18 100.216C283.907 100.216 286.285 100.812 288.313 102.006C290.342 103.199 291.918 104.903 293.043 107.119C294.168 109.318 294.731 111.943 294.731 114.994V140H283.839V116.938C283.856 114.534 283.242 112.659 281.998 111.312C280.754 109.949 279.04 109.267 276.859 109.267C275.393 109.267 274.097 109.582 272.972 110.213C271.864 110.844 270.995 111.764 270.364 112.974C269.751 114.168 269.435 115.608 269.418 117.295ZM317.787 140.639C314.804 140.639 312.102 139.872 309.682 138.338C307.278 136.787 305.369 134.511 303.955 131.511C302.557 128.494 301.858 124.795 301.858 120.415C301.858 115.915 302.582 112.173 304.031 109.19C305.48 106.19 307.406 103.949 309.81 102.466C312.23 100.966 314.881 100.216 317.761 100.216C319.96 100.216 321.793 100.591 323.259 101.341C324.741 102.074 325.935 102.994 326.838 104.102C327.759 105.193 328.457 106.267 328.935 107.324H329.267V87.6364H340.134V140H329.395V133.71H328.935C328.423 134.801 327.699 135.884 326.761 136.957C325.841 138.014 324.639 138.892 323.156 139.591C321.69 140.29 319.901 140.639 317.787 140.639ZM321.239 131.972C322.994 131.972 324.477 131.494 325.688 130.54C326.915 129.568 327.852 128.213 328.5 126.474C329.165 124.736 329.497 122.699 329.497 120.364C329.497 118.028 329.173 116 328.526 114.278C327.878 112.557 326.94 111.227 325.713 110.29C324.486 109.352 322.994 108.884 321.239 108.884C319.449 108.884 317.94 109.369 316.713 110.341C315.486 111.312 314.557 112.659 313.926 114.381C313.295 116.102 312.98 118.097 312.98 120.364C312.98 122.648 313.295 124.668 313.926 126.423C314.574 128.162 315.503 129.526 316.713 130.514C317.94 131.486 319.449 131.972 321.239 131.972ZM365.957 140V87.6364H386.616C390.588 87.6364 393.972 88.3949 396.767 89.9119C399.563 91.4119 401.693 93.5 403.159 96.1761C404.642 98.8352 405.384 101.903 405.384 105.381C405.384 108.858 404.634 111.926 403.134 114.585C401.634 117.244 399.46 119.315 396.614 120.798C393.784 122.281 390.358 123.023 386.335 123.023H373.168V114.151H384.545C386.676 114.151 388.432 113.784 389.812 113.051C391.21 112.301 392.25 111.27 392.932 109.957C393.631 108.628 393.98 107.102 393.98 105.381C393.98 103.642 393.631 102.125 392.932 100.83C392.25 99.517 391.21 98.5028 389.812 97.7869C388.415 97.054 386.642 96.6875 384.494 96.6875H377.028V140H365.957ZM429.482 140.767C425.51 140.767 422.075 139.923 419.178 138.236C416.297 136.531 414.072 134.162 412.504 131.128C410.936 128.077 410.152 124.54 410.152 120.517C410.152 116.46 410.936 112.915 412.504 109.881C414.072 106.83 416.297 104.46 419.178 102.773C422.075 101.068 425.51 100.216 429.482 100.216C433.453 100.216 436.879 101.068 439.76 102.773C442.658 104.46 444.891 106.83 446.459 109.881C448.027 112.915 448.811 116.46 448.811 120.517C448.811 124.54 448.027 128.077 446.459 131.128C444.891 134.162 442.658 136.531 439.76 138.236C436.879 139.923 433.453 140.767 429.482 140.767ZM429.533 132.33C431.339 132.33 432.848 131.818 434.058 130.795C435.268 129.756 436.18 128.341 436.794 126.551C437.425 124.761 437.74 122.724 437.74 120.44C437.74 118.156 437.425 116.119 436.794 114.33C436.18 112.54 435.268 111.125 434.058 110.085C432.848 109.045 431.339 108.526 429.533 108.526C427.709 108.526 426.175 109.045 424.93 110.085C423.703 111.125 422.774 112.54 422.143 114.33C421.53 116.119 421.223 118.156 421.223 120.44C421.223 122.724 421.53 124.761 422.143 126.551C422.774 128.341 423.703 129.756 424.93 130.795C426.175 131.818 427.709 132.33 429.533 132.33ZM473.638 140.767C469.666 140.767 466.232 139.923 463.334 138.236C460.453 136.531 458.229 134.162 456.661 131.128C455.092 128.077 454.308 124.54 454.308 120.517C454.308 116.46 455.092 112.915 456.661 109.881C458.229 106.83 460.453 104.46 463.334 102.773C466.232 101.068 469.666 100.216 473.638 100.216C477.609 100.216 481.036 101.068 483.916 102.773C486.814 104.46 489.047 106.83 490.615 109.881C492.183 112.915 492.967 116.46 492.967 120.517C492.967 124.54 492.183 128.077 490.615 131.128C489.047 134.162 486.814 136.531 483.916 138.236C481.036 139.923 477.609 140.767 473.638 140.767ZM473.689 132.33C475.496 132.33 477.004 131.818 478.214 130.795C479.425 129.756 480.337 128.341 480.95 126.551C481.581 124.761 481.896 122.724 481.896 120.44C481.896 118.156 481.581 116.119 480.95 114.33C480.337 112.54 479.425 111.125 478.214 110.085C477.004 109.045 475.496 108.526 473.689 108.526C471.865 108.526 470.331 109.045 469.087 110.085C467.859 111.125 466.93 112.54 466.3 114.33C465.686 116.119 465.379 118.156 465.379 120.44C465.379 122.724 465.686 124.761 466.3 126.551C466.93 128.341 467.859 129.756 469.087 130.795C470.331 131.818 471.865 132.33 473.689 132.33ZM510.942 87.6364V140H500.05V87.6364H510.942Z" fill="url(#paint0_linear_70_880)"/>
<defs>
<linearGradient id="paint0_linear_70_880" x1="258" y1="74" x2="258" y2="154" gradientUnits="userSpaceOnUse">
<stop stop-color="#F5F5F5"/>
<stop offset="1" stop-color="#D1D1D1"/>
</linearGradient>
</defs>
</svg>
