<svg width="32" height="32" viewBox="0 0 32 32" fill="none" xmlns="http://www.w3.org/2000/svg">
<rect width="32" height="32" rx="9" fill="white"/>
<path d="M25.0618 9.92204C24.4703 10.1922 23.8485 10.3804 23.2116 10.4819C23.5094 10.4277 23.9475 9.85884 24.1218 9.62859C24.3868 9.28128 24.5887 8.88479 24.7173 8.45928C24.7173 8.42768 24.7471 8.38253 24.7173 8.35996C24.7023 8.35126 24.6855 8.34671 24.6684 8.34671C24.6513 8.34671 24.6345 8.35126 24.6195 8.35996C23.928 8.75744 23.192 9.06081 22.4291 9.2629C22.4025 9.27152 22.3742 9.27229 22.3472 9.26513C22.3202 9.25798 22.2956 9.24316 22.2759 9.22226C22.2165 9.1472 22.1526 9.07632 22.0845 9.01007C21.7733 8.71411 21.4203 8.47188 21.0382 8.29224C20.5226 8.06767 19.9655 7.97041 19.4092 8.00781C18.8695 8.044 18.3425 8.19767 17.8611 8.45928C17.387 8.73509 16.9703 9.10979 16.6361 9.56087C16.2846 10.0251 16.0308 10.5639 15.8918 11.141C15.7772 11.6899 15.7642 12.2573 15.8535 12.8114C15.8535 12.9063 15.8535 12.9198 15.777 12.9063C12.7444 12.4322 10.2563 11.29 8.22321 8.83851C8.13389 8.73016 8.08711 8.73016 8.0148 8.83851C7.13013 10.2652 7.55971 12.5225 8.66555 13.6376C8.81441 13.7866 8.96753 13.9311 9.12915 14.0665C8.62213 14.0283 8.12749 13.8825 7.67454 13.6376C7.58948 13.5789 7.54269 13.6105 7.53844 13.7189C7.52638 13.8691 7.52638 14.0201 7.53844 14.1704C7.62719 14.8903 7.89447 15.5723 8.31296 16.1466C8.73144 16.7209 9.28612 17.1669 9.92026 17.439C10.0748 17.5093 10.2359 17.5622 10.4009 17.597C9.9315 17.6951 9.45009 17.7104 8.97604 17.6422C8.87396 17.6196 8.83568 17.6783 8.87396 17.7821C9.49919 19.588 10.856 20.1388 11.8512 20.4458C11.9873 20.4684 12.1234 20.4684 12.2766 20.5045C12.2766 20.5045 12.2766 20.5045 12.251 20.5316C11.9576 21.1004 10.7709 21.4842 10.2265 21.6828C9.23279 22.0617 8.17333 22.2065 7.12162 22.1072C6.95575 22.0801 6.91747 22.0846 6.87493 22.1072C6.8324 22.1298 6.87493 22.1794 6.92172 22.2246C7.13438 22.3736 7.34704 22.5045 7.56821 22.6309C8.22663 23.0121 8.92272 23.3149 9.6438 23.5338C13.3781 24.6264 17.5804 23.8228 20.3832 20.8657C22.5864 18.5451 23.3605 15.3442 23.3605 12.1388C23.3605 12.0169 23.5009 11.9446 23.5817 11.8814C24.1391 11.4204 24.6305 10.876 25.0405 10.2652C25.1116 10.1741 25.148 10.0582 25.1426 9.9401C25.1426 9.87238 25.1426 9.88592 25.0618 9.92204Z" fill="#B1D287"/>
</svg>
